<mxfile host="app.diagrams.net" agent="Mozilla/5.0 (Windows NT 10.0; Win64; x64) AppleWebKit/537.36 (KHTML, like Gecko) Chrome/131.0.0.0 Safari/537.36" version="25.0.3">
  <diagram name="Page-1" id="ke6rLrDLDJ2pHHMzEqi_">
    <mxGraphModel dx="1932" dy="1573" grid="1" gridSize="10" guides="1" tooltips="1" connect="1" arrows="1" fold="1" page="1" pageScale="1" pageWidth="850" pageHeight="1100" math="0" shadow="0">
      <root>
        <mxCell id="0" />
        <mxCell id="1" parent="0" />
        <mxCell id="FvDt3EPxWLtIRSp8jO_J-41" value="" style="group" vertex="1" connectable="0" parent="1">
          <mxGeometry x="-822" y="-1040" width="795" height="907.4611398963731" as="geometry" />
        </mxCell>
        <mxCell id="FvDt3EPxWLtIRSp8jO_J-10" value="" style="group" vertex="1" connectable="0" parent="FvDt3EPxWLtIRSp8jO_J-41">
          <mxGeometry x="37.85714285714286" width="160" height="150" as="geometry" />
        </mxCell>
        <mxCell id="FvDt3EPxWLtIRSp8jO_J-1" value="LoginScreen" style="swimlane;fontStyle=1;align=center;verticalAlign=top;childLayout=stackLayout;horizontal=1;startSize=26;horizontalStack=0;resizeParent=1;resizeParentMax=0;resizeLast=0;collapsible=1;marginBottom=0;whiteSpace=wrap;html=1;" vertex="1" parent="FvDt3EPxWLtIRSp8jO_J-10">
          <mxGeometry width="160" height="150.00103626943005" as="geometry" />
        </mxCell>
        <mxCell id="FvDt3EPxWLtIRSp8jO_J-2" value="- usernameField: JTextField&lt;div&gt;- passwordZField: JPassword&lt;/div&gt;&lt;div&gt;- loginButton: JButton&lt;/div&gt;&lt;div&gt;&lt;br&gt;&lt;/div&gt;" style="text;strokeColor=none;fillColor=none;align=left;verticalAlign=top;spacingLeft=4;spacingRight=4;overflow=hidden;rotatable=0;points=[[0,0.5],[1,0.5]];portConstraint=eastwest;whiteSpace=wrap;html=1;" vertex="1" parent="FvDt3EPxWLtIRSp8jO_J-1">
          <mxGeometry y="26" width="160" height="49.24352331606218" as="geometry" />
        </mxCell>
        <mxCell id="FvDt3EPxWLtIRSp8jO_J-3" value="" style="line;strokeWidth=1;fillColor=none;align=left;verticalAlign=middle;spacingTop=-1;spacingLeft=3;spacingRight=3;rotatable=0;labelPosition=right;points=[];portConstraint=eastwest;strokeColor=inherit;" vertex="1" parent="FvDt3EPxWLtIRSp8jO_J-1">
          <mxGeometry y="75.24352331606218" width="160" height="27.357512953367877" as="geometry" />
        </mxCell>
        <mxCell id="FvDt3EPxWLtIRSp8jO_J-4" value="+ LoginScreen()&lt;div&gt;+ main (args: String[]): void&lt;/div&gt;" style="text;strokeColor=none;fillColor=none;align=left;verticalAlign=top;spacingLeft=4;spacingRight=4;overflow=hidden;rotatable=0;points=[[0,0.5],[1,0.5]];portConstraint=eastwest;whiteSpace=wrap;html=1;" vertex="1" parent="FvDt3EPxWLtIRSp8jO_J-1">
          <mxGeometry y="102.60103626943005" width="160" height="47.4" as="geometry" />
        </mxCell>
        <mxCell id="FvDt3EPxWLtIRSp8jO_J-9" value="" style="endArrow=none;html=1;rounded=0;" edge="1" parent="FvDt3EPxWLtIRSp8jO_J-1">
          <mxGeometry width="50" height="50" relative="1" as="geometry">
            <mxPoint x="6.30952380952381" y="136.78756476683938" as="sourcePoint" />
            <mxPoint x="94.64285714285715" y="136.78756476683938" as="targetPoint" />
          </mxGeometry>
        </mxCell>
        <mxCell id="FvDt3EPxWLtIRSp8jO_J-5" value="" style="line;strokeWidth=1;fillColor=none;align=left;verticalAlign=middle;spacingTop=-1;spacingLeft=3;spacingRight=3;rotatable=0;labelPosition=right;points=[];portConstraint=eastwest;strokeColor=inherit;" vertex="1" parent="FvDt3EPxWLtIRSp8jO_J-10">
          <mxGeometry x="63.095238095238095" y="100.31088082901555" width="18.92857142857143" as="geometry" />
        </mxCell>
        <mxCell id="FvDt3EPxWLtIRSp8jO_J-11" value="Receptionist1" style="swimlane;fontStyle=1;align=center;verticalAlign=top;childLayout=stackLayout;horizontal=1;startSize=26;horizontalStack=0;resizeParent=1;resizeParentMax=0;resizeLast=0;collapsible=1;marginBottom=0;whiteSpace=wrap;html=1;" vertex="1" parent="FvDt3EPxWLtIRSp8jO_J-41">
          <mxGeometry x="293.39" y="328.29" width="260" height="219.99720207253887" as="geometry" />
        </mxCell>
        <mxCell id="FvDt3EPxWLtIRSp8jO_J-12" value="- doctors: ArrayList&amp;lt;Doctor&amp;gt;&lt;div&gt;- patients: ArrayList&amp;lt;Patient&amp;gt;&lt;/div&gt;&lt;div&gt;- appointments: ArrayList&amp;lt;Appointment&amp;gt;&lt;/div&gt;" style="text;strokeColor=none;fillColor=none;align=left;verticalAlign=top;spacingLeft=4;spacingRight=4;overflow=hidden;rotatable=0;points=[[0,0.5],[1,0.5]];portConstraint=eastwest;whiteSpace=wrap;html=1;" vertex="1" parent="FvDt3EPxWLtIRSp8jO_J-11">
          <mxGeometry y="26" width="260" height="67.48186528497409" as="geometry" />
        </mxCell>
        <mxCell id="FvDt3EPxWLtIRSp8jO_J-13" value="" style="line;strokeWidth=1;fillColor=none;align=left;verticalAlign=middle;spacingTop=-1;spacingLeft=3;spacingRight=3;rotatable=0;labelPosition=right;points=[];portConstraint=eastwest;strokeColor=inherit;" vertex="1" parent="FvDt3EPxWLtIRSp8jO_J-11">
          <mxGeometry y="93.48186528497409" width="260" height="7.295336787564767" as="geometry" />
        </mxCell>
        <mxCell id="FvDt3EPxWLtIRSp8jO_J-14" value="+ &lt;span class=&quot;hljs-built_in&quot;&gt;addDoctor&lt;/span&gt;(doctor: Doctor): void&lt;div&gt;+ &lt;span class=&quot;hljs-built_in&quot;&gt;addPatient&lt;/span&gt;(patient: Patient): void&lt;/div&gt;&lt;div&gt;+ &lt;span class=&quot;hljs-built_in&quot;&gt;scheduleAppointment&lt;/span&gt;(appointment: Appointment): void&lt;/div&gt;&lt;div&gt;+ &lt;span class=&quot;hljs-built_in&quot;&gt;getDoctors&lt;/span&gt;(): ArrayList&amp;lt;Doctor&amp;gt;&lt;/div&gt;&lt;div&gt;+ &lt;span class=&quot;hljs-built_in&quot;&gt;getPatients&lt;/span&gt;(): ArrayList&amp;lt;Patient&amp;gt;&lt;/div&gt;&lt;div&gt;+ &lt;span class=&quot;hljs-built_in&quot;&gt;getAppointments&lt;/span&gt;(): ArrayList&amp;lt;Appointment&amp;gt;&lt;/div&gt;" style="text;strokeColor=none;fillColor=none;align=left;verticalAlign=top;spacingLeft=4;spacingRight=4;overflow=hidden;rotatable=0;points=[[0,0.5],[1,0.5]];portConstraint=eastwest;whiteSpace=wrap;html=1;" vertex="1" parent="FvDt3EPxWLtIRSp8jO_J-11">
          <mxGeometry y="100.77720207253886" width="260" height="119.22" as="geometry" />
        </mxCell>
        <mxCell id="FvDt3EPxWLtIRSp8jO_J-15" value="Patient" style="swimlane;fontStyle=1;align=center;verticalAlign=top;childLayout=stackLayout;horizontal=1;startSize=26;horizontalStack=0;resizeParent=1;resizeParentMax=0;resizeLast=0;collapsible=1;marginBottom=0;whiteSpace=wrap;html=1;" vertex="1" parent="FvDt3EPxWLtIRSp8jO_J-41">
          <mxGeometry x="277.6190476190476" y="642.9015544041451" width="223.99" height="259.9963730569948" as="geometry" />
        </mxCell>
        <mxCell id="FvDt3EPxWLtIRSp8jO_J-16" value="&lt;span class=&quot;hljs-operator&quot;&gt;-&lt;/span&gt; &lt;span class=&quot;hljs-variable&quot;&gt;name&lt;/span&gt;&lt;span class=&quot;hljs-operator&quot;&gt;:&lt;/span&gt; &lt;span class=&quot;hljs-built_in&quot;&gt;String&lt;/span&gt;&lt;div&gt;&lt;span class=&quot;hljs-built_in&quot;&gt;&lt;span class=&quot;hljs-operator&quot;&gt;-&lt;/span&gt; &lt;span class=&quot;hljs-variable&quot;&gt;age&lt;/span&gt;&lt;span class=&quot;hljs-operator&quot;&gt;:&lt;/span&gt; &lt;span class=&quot;hljs-variable&quot;&gt;int&lt;/span&gt;&lt;/span&gt;&lt;/div&gt;&lt;div&gt;&lt;span class=&quot;hljs-built_in&quot;&gt;&lt;span class=&quot;hljs-variable&quot;&gt;&lt;span class=&quot;hljs-operator&quot;&gt;-&lt;/span&gt; &lt;span class=&quot;hljs-variable&quot;&gt;problem&lt;/span&gt;&lt;span class=&quot;hljs-operator&quot;&gt;:&lt;/span&gt; &lt;span class=&quot;hljs-built_in&quot;&gt;String&lt;/span&gt;&lt;/span&gt;&lt;/span&gt;&lt;/div&gt;&lt;div&gt;&lt;span class=&quot;hljs-built_in&quot;&gt;&lt;span class=&quot;hljs-variable&quot;&gt;&lt;span class=&quot;hljs-built_in&quot;&gt;&lt;span class=&quot;hljs-operator&quot;&gt;-&lt;/span&gt; &lt;span class=&quot;hljs-variable&quot;&gt;Address&lt;/span&gt;&lt;span class=&quot;hljs-operator&quot;&gt;:&lt;/span&gt; &lt;span class=&quot;hljs-built_in&quot;&gt;String&lt;/span&gt;&lt;/span&gt;&lt;/span&gt;&lt;/span&gt;&lt;/div&gt;&lt;div&gt;&lt;span class=&quot;hljs-built_in&quot;&gt;&lt;span class=&quot;hljs-variable&quot;&gt;&lt;span class=&quot;hljs-built_in&quot;&gt;&lt;span class=&quot;hljs-built_in&quot;&gt;&lt;span class=&quot;hljs-operator&quot;&gt;-&lt;/span&gt; &lt;span class=&quot;hljs-variable&quot;&gt;Phone&lt;/span&gt;&lt;span class=&quot;hljs-operator&quot;&gt;:&lt;/span&gt; &lt;span class=&quot;hljs-built_in&quot;&gt;String&lt;/span&gt;&lt;/span&gt;&lt;/span&gt;&lt;/span&gt;&lt;/span&gt;&lt;/div&gt;" style="text;strokeColor=none;fillColor=none;align=left;verticalAlign=top;spacingLeft=4;spacingRight=4;overflow=hidden;rotatable=0;points=[[0,0.5],[1,0.5]];portConstraint=eastwest;whiteSpace=wrap;html=1;" vertex="1" parent="FvDt3EPxWLtIRSp8jO_J-15">
          <mxGeometry y="26" width="223.99" height="76.60103626943005" as="geometry" />
        </mxCell>
        <mxCell id="FvDt3EPxWLtIRSp8jO_J-17" value="" style="line;strokeWidth=1;fillColor=none;align=left;verticalAlign=middle;spacingTop=-1;spacingLeft=3;spacingRight=3;rotatable=0;labelPosition=right;points=[];portConstraint=eastwest;strokeColor=inherit;" vertex="1" parent="FvDt3EPxWLtIRSp8jO_J-15">
          <mxGeometry y="102.60103626943005" width="223.99" height="7.295336787564767" as="geometry" />
        </mxCell>
        <mxCell id="FvDt3EPxWLtIRSp8jO_J-18" value="&lt;span class=&quot;hljs-operator&quot;&gt;+&lt;/span&gt; &lt;span class=&quot;hljs-variable&quot;&gt;Patient&lt;/span&gt;&lt;span class=&quot;hljs-punctuation&quot;&gt;(&lt;/span&gt;&lt;span class=&quot;hljs-variable&quot;&gt;name&lt;/span&gt;&lt;span class=&quot;hljs-operator&quot;&gt;:&lt;/span&gt; &lt;span class=&quot;hljs-built_in&quot;&gt;String&lt;/span&gt;&lt;span class=&quot;hljs-operator&quot;&gt;,&lt;/span&gt; &lt;span class=&quot;hljs-variable&quot;&gt;age&lt;/span&gt;&lt;span class=&quot;hljs-operator&quot;&gt;:&lt;/span&gt; &lt;span class=&quot;hljs-variable&quot;&gt;int&lt;/span&gt;&lt;span class=&quot;hljs-operator&quot;&gt;,&lt;/span&gt; &lt;span class=&quot;hljs-variable&quot;&gt;problem&lt;/span&gt;&lt;span class=&quot;hljs-operator&quot;&gt;:&lt;/span&gt; &lt;span class=&quot;hljs-built_in&quot;&gt;String&lt;/span&gt;&lt;span class=&quot;hljs-operator&quot;&gt;,&lt;/span&gt; &lt;span class=&quot;hljs-variable&quot;&gt;Address&lt;/span&gt;&lt;span class=&quot;hljs-operator&quot;&gt;:&lt;/span&gt; &lt;span class=&quot;hljs-built_in&quot;&gt;String&lt;/span&gt;&lt;span class=&quot;hljs-operator&quot;&gt;,&lt;/span&gt; &lt;span class=&quot;hljs-variable&quot;&gt;Phone&lt;/span&gt;&lt;span class=&quot;hljs-operator&quot;&gt;:&lt;/span&gt; &lt;span class=&quot;hljs-built_in&quot;&gt;String&lt;/span&gt;&lt;span class=&quot;hljs-punctuation&quot;&gt;)&lt;/span&gt;&lt;div&gt;&lt;span class=&quot;hljs-punctuation&quot;&gt;&lt;span class=&quot;hljs-operator&quot;&gt;+&lt;/span&gt; &lt;span class=&quot;hljs-variable&quot;&gt;getName&lt;/span&gt;&lt;span class=&quot;hljs-punctuation&quot;&gt;(&lt;/span&gt;&lt;span class=&quot;hljs-punctuation&quot;&gt;)&lt;/span&gt;&lt;span class=&quot;hljs-operator&quot;&gt;:&lt;/span&gt; &lt;span class=&quot;hljs-built_in&quot;&gt;String&lt;/span&gt;&lt;/span&gt;&lt;/div&gt;&lt;div&gt;&lt;span class=&quot;hljs-punctuation&quot;&gt;&lt;span class=&quot;hljs-built_in&quot;&gt;&lt;span class=&quot;hljs-operator&quot;&gt;+&lt;/span&gt; &lt;span class=&quot;hljs-variable&quot;&gt;getAge&lt;/span&gt;&lt;span class=&quot;hljs-punctuation&quot;&gt;(&lt;/span&gt;&lt;span class=&quot;hljs-punctuation&quot;&gt;)&lt;/span&gt;&lt;span class=&quot;hljs-operator&quot;&gt;:&lt;/span&gt; &lt;span class=&quot;hljs-variable&quot;&gt;int&lt;/span&gt;&lt;/span&gt;&lt;/span&gt;&lt;/div&gt;&lt;div&gt;&lt;span class=&quot;hljs-punctuation&quot;&gt;&lt;span class=&quot;hljs-built_in&quot;&gt;&lt;span class=&quot;hljs-variable&quot;&gt;&lt;span class=&quot;hljs-operator&quot;&gt;+&lt;/span&gt; &lt;span class=&quot;hljs-variable&quot;&gt;getProblem&lt;/span&gt;&lt;span class=&quot;hljs-punctuation&quot;&gt;(&lt;/span&gt;&lt;span class=&quot;hljs-punctuation&quot;&gt;)&lt;/span&gt;&lt;span class=&quot;hljs-operator&quot;&gt;:&lt;/span&gt; &lt;span class=&quot;hljs-built_in&quot;&gt;String&lt;/span&gt;&lt;/span&gt;&lt;/span&gt;&lt;/span&gt;&lt;/div&gt;&lt;div&gt;&lt;span class=&quot;hljs-punctuation&quot;&gt;&lt;span class=&quot;hljs-built_in&quot;&gt;&lt;span class=&quot;hljs-variable&quot;&gt;&lt;span class=&quot;hljs-built_in&quot;&gt;&lt;span class=&quot;hljs-operator&quot;&gt;+&lt;/span&gt; &lt;span class=&quot;hljs-variable&quot;&gt;getAddress&lt;/span&gt;&lt;span class=&quot;hljs-punctuation&quot;&gt;(&lt;/span&gt;&lt;span class=&quot;hljs-punctuation&quot;&gt;)&lt;/span&gt;&lt;span class=&quot;hljs-operator&quot;&gt;:&lt;/span&gt; &lt;span class=&quot;hljs-built_in&quot;&gt;String&lt;/span&gt;&lt;/span&gt;&lt;/span&gt;&lt;/span&gt;&lt;/span&gt;&lt;/div&gt;&lt;div&gt;&lt;span class=&quot;hljs-punctuation&quot;&gt;&lt;span class=&quot;hljs-built_in&quot;&gt;&lt;span class=&quot;hljs-variable&quot;&gt;&lt;span class=&quot;hljs-built_in&quot;&gt;&lt;span class=&quot;hljs-built_in&quot;&gt;&lt;span class=&quot;hljs-operator&quot;&gt;+&lt;/span&gt; &lt;span class=&quot;hljs-variable&quot;&gt;getPhone&lt;/span&gt;&lt;span class=&quot;hljs-punctuation&quot;&gt;(&lt;/span&gt;&lt;span class=&quot;hljs-punctuation&quot;&gt;)&lt;/span&gt;&lt;span class=&quot;hljs-operator&quot;&gt;:&lt;/span&gt; &lt;span class=&quot;hljs-built_in&quot;&gt;String&lt;/span&gt;&lt;/span&gt;&lt;/span&gt;&lt;/span&gt;&lt;/span&gt;&lt;/span&gt;&lt;/div&gt;&lt;div&gt;&lt;span class=&quot;hljs-punctuation&quot;&gt;&lt;span class=&quot;hljs-built_in&quot;&gt;&lt;span class=&quot;hljs-variable&quot;&gt;&lt;span class=&quot;hljs-built_in&quot;&gt;&lt;span class=&quot;hljs-built_in&quot;&gt;&lt;span class=&quot;hljs-built_in&quot;&gt;&lt;span class=&quot;hljs-operator&quot;&gt;+&lt;/span&gt; &lt;span class=&quot;hljs-variable&quot;&gt;toString&lt;/span&gt;&lt;span class=&quot;hljs-punctuation&quot;&gt;(&lt;/span&gt;&lt;span class=&quot;hljs-punctuation&quot;&gt;)&lt;/span&gt;&lt;span class=&quot;hljs-operator&quot;&gt;:&lt;/span&gt; &lt;span class=&quot;hljs-built_in&quot;&gt;String&lt;/span&gt;&lt;/span&gt;&lt;/span&gt;&lt;/span&gt;&lt;/span&gt;&lt;/span&gt;&lt;/span&gt;&lt;/div&gt;&lt;div&gt;&lt;span class=&quot;hljs-punctuation&quot;&gt;&lt;span class=&quot;hljs-built_in&quot;&gt;&lt;span class=&quot;hljs-variable&quot;&gt;&lt;br&gt;&lt;/span&gt;&lt;/span&gt;&lt;/span&gt;&lt;/div&gt;" style="text;strokeColor=none;fillColor=none;align=left;verticalAlign=top;spacingLeft=4;spacingRight=4;overflow=hidden;rotatable=0;points=[[0,0.5],[1,0.5]];portConstraint=eastwest;whiteSpace=wrap;html=1;" vertex="1" parent="FvDt3EPxWLtIRSp8jO_J-15">
          <mxGeometry y="109.89637305699482" width="223.99" height="150.1" as="geometry" />
        </mxCell>
        <mxCell id="FvDt3EPxWLtIRSp8jO_J-19" value="Doctor" style="swimlane;fontStyle=1;align=center;verticalAlign=top;childLayout=stackLayout;horizontal=1;startSize=26;horizontalStack=0;resizeParent=1;resizeParentMax=0;resizeLast=0;collapsible=1;marginBottom=0;whiteSpace=wrap;html=1;" vertex="1" parent="FvDt3EPxWLtIRSp8jO_J-41">
          <mxGeometry y="647.4611398963731" width="220.83" height="259.9963730569948" as="geometry" />
        </mxCell>
        <mxCell id="FvDt3EPxWLtIRSp8jO_J-20" value="&lt;span class=&quot;hljs-operator&quot;&gt;-&lt;/span&gt; &lt;span class=&quot;hljs-variable&quot;&gt;name&lt;/span&gt;&lt;span class=&quot;hljs-operator&quot;&gt;:&lt;/span&gt; &lt;span class=&quot;hljs-built_in&quot;&gt;String&lt;/span&gt;&lt;div&gt;&lt;span class=&quot;hljs-built_in&quot;&gt;&lt;span class=&quot;hljs-operator&quot;&gt;-&lt;/span&gt; &lt;span class=&quot;hljs-variable&quot;&gt;specialization&lt;/span&gt;&lt;span class=&quot;hljs-operator&quot;&gt;:&lt;/span&gt; &lt;span class=&quot;hljs-built_in&quot;&gt;String&lt;/span&gt;&lt;/span&gt;&lt;/div&gt;&lt;div&gt;&lt;span class=&quot;hljs-built_in&quot;&gt;&lt;span class=&quot;hljs-built_in&quot;&gt;&lt;span class=&quot;hljs-operator&quot;&gt;-&lt;/span&gt; &lt;span class=&quot;hljs-variable&quot;&gt;Phone&lt;/span&gt;&lt;span class=&quot;hljs-operator&quot;&gt;:&lt;/span&gt; &lt;span class=&quot;hljs-built_in&quot;&gt;String&lt;/span&gt;&lt;/span&gt;&lt;/span&gt;&lt;/div&gt;&lt;div&gt;&lt;span class=&quot;hljs-built_in&quot;&gt;&lt;span class=&quot;hljs-built_in&quot;&gt;&lt;span class=&quot;hljs-built_in&quot;&gt;&lt;span class=&quot;hljs-operator&quot;&gt;-&lt;/span&gt; &lt;span class=&quot;hljs-variable&quot;&gt;Fees&lt;/span&gt;&lt;span class=&quot;hljs-operator&quot;&gt;:&lt;/span&gt; &lt;span class=&quot;hljs-variable&quot;&gt;int&lt;/span&gt;&lt;/span&gt;&lt;/span&gt;&lt;/span&gt;&lt;/div&gt;&lt;div&gt;&lt;span class=&quot;hljs-built_in&quot;&gt;&lt;span class=&quot;hljs-built_in&quot;&gt;&lt;span class=&quot;hljs-built_in&quot;&gt;&lt;span class=&quot;hljs-variable&quot;&gt;&lt;span class=&quot;hljs-operator&quot;&gt;-&lt;/span&gt; &lt;span class=&quot;hljs-variable&quot;&gt;DoctorId&lt;/span&gt;&lt;span class=&quot;hljs-operator&quot;&gt;:&lt;/span&gt; &lt;span class=&quot;hljs-built_in&quot;&gt;String&lt;/span&gt;&lt;/span&gt;&lt;/span&gt;&lt;/span&gt;&lt;/span&gt;&lt;/div&gt;&lt;div&gt;&lt;span class=&quot;hljs-built_in&quot;&gt;&lt;span class=&quot;hljs-built_in&quot;&gt;&lt;span class=&quot;hljs-built_in&quot;&gt;&lt;span class=&quot;hljs-variable&quot;&gt;&lt;br&gt;&lt;/span&gt;&lt;/span&gt;&lt;/span&gt;&lt;/span&gt;&lt;/div&gt;" style="text;strokeColor=none;fillColor=none;align=left;verticalAlign=top;spacingLeft=4;spacingRight=4;overflow=hidden;rotatable=0;points=[[0,0.5],[1,0.5]];portConstraint=eastwest;whiteSpace=wrap;html=1;" vertex="1" parent="FvDt3EPxWLtIRSp8jO_J-19">
          <mxGeometry y="26" width="220.83" height="76.60103626943005" as="geometry" />
        </mxCell>
        <mxCell id="FvDt3EPxWLtIRSp8jO_J-21" value="" style="line;strokeWidth=1;fillColor=none;align=left;verticalAlign=middle;spacingTop=-1;spacingLeft=3;spacingRight=3;rotatable=0;labelPosition=right;points=[];portConstraint=eastwest;strokeColor=inherit;" vertex="1" parent="FvDt3EPxWLtIRSp8jO_J-19">
          <mxGeometry y="102.60103626943005" width="220.83" height="7.295336787564767" as="geometry" />
        </mxCell>
        <mxCell id="FvDt3EPxWLtIRSp8jO_J-22" value="&lt;span class=&quot;hljs-operator&quot;&gt;+&lt;/span&gt; &lt;span class=&quot;hljs-variable&quot;&gt;Doctor&lt;/span&gt;&lt;span class=&quot;hljs-punctuation&quot;&gt;(&lt;/span&gt;&lt;span class=&quot;hljs-variable&quot;&gt;name&lt;/span&gt;&lt;span class=&quot;hljs-operator&quot;&gt;:&lt;/span&gt; &lt;span class=&quot;hljs-built_in&quot;&gt;String&lt;/span&gt;&lt;span class=&quot;hljs-operator&quot;&gt;,&lt;/span&gt; &lt;span class=&quot;hljs-variable&quot;&gt;specialization&lt;/span&gt;&lt;span class=&quot;hljs-operator&quot;&gt;:&lt;/span&gt; &lt;span class=&quot;hljs-built_in&quot;&gt;String&lt;/span&gt;&lt;span class=&quot;hljs-operator&quot;&gt;,&lt;/span&gt; &lt;span class=&quot;hljs-variable&quot;&gt;Phone&lt;/span&gt;&lt;span class=&quot;hljs-operator&quot;&gt;:&lt;/span&gt; &lt;span class=&quot;hljs-built_in&quot;&gt;String&lt;/span&gt;&lt;span class=&quot;hljs-operator&quot;&gt;,&lt;/span&gt; &lt;span class=&quot;hljs-variable&quot;&gt;Fees&lt;/span&gt;&lt;span class=&quot;hljs-operator&quot;&gt;:&lt;/span&gt; &lt;span class=&quot;hljs-variable&quot;&gt;int&lt;/span&gt;&lt;span class=&quot;hljs-operator&quot;&gt;,&lt;/span&gt; &lt;span class=&quot;hljs-variable&quot;&gt;DoctorId&lt;/span&gt;&lt;span class=&quot;hljs-operator&quot;&gt;:&lt;/span&gt; &lt;span class=&quot;hljs-built_in&quot;&gt;String&lt;/span&gt;&lt;span class=&quot;hljs-punctuation&quot;&gt;)&lt;/span&gt;&lt;div&gt;&lt;span class=&quot;hljs-punctuation&quot;&gt;&lt;span class=&quot;hljs-operator&quot;&gt;+&lt;/span&gt; &lt;span class=&quot;hljs-variable&quot;&gt;getName&lt;/span&gt;&lt;span class=&quot;hljs-punctuation&quot;&gt;(&lt;/span&gt;&lt;span class=&quot;hljs-punctuation&quot;&gt;)&lt;/span&gt;&lt;span class=&quot;hljs-operator&quot;&gt;:&lt;/span&gt; &lt;span class=&quot;hljs-built_in&quot;&gt;String&lt;/span&gt;&lt;/span&gt;&lt;/div&gt;&lt;div&gt;&lt;span class=&quot;hljs-punctuation&quot;&gt;&lt;span class=&quot;hljs-built_in&quot;&gt;&lt;span class=&quot;hljs-operator&quot;&gt;+&lt;/span&gt; &lt;span class=&quot;hljs-variable&quot;&gt;getSpecialization&lt;/span&gt;&lt;span class=&quot;hljs-punctuation&quot;&gt;(&lt;/span&gt;&lt;span class=&quot;hljs-punctuation&quot;&gt;)&lt;/span&gt;&lt;span class=&quot;hljs-operator&quot;&gt;:&lt;/span&gt; &lt;span class=&quot;hljs-built_in&quot;&gt;String&lt;/span&gt;&lt;/span&gt;&lt;/span&gt;&lt;/div&gt;&lt;div&gt;&lt;span class=&quot;hljs-punctuation&quot;&gt;&lt;span class=&quot;hljs-built_in&quot;&gt;&lt;span class=&quot;hljs-built_in&quot;&gt;&lt;span class=&quot;hljs-operator&quot;&gt;+&lt;/span&gt; &lt;span class=&quot;hljs-variable&quot;&gt;getPhone&lt;/span&gt;&lt;span class=&quot;hljs-punctuation&quot;&gt;(&lt;/span&gt;&lt;span class=&quot;hljs-punctuation&quot;&gt;)&lt;/span&gt;&lt;span class=&quot;hljs-operator&quot;&gt;:&lt;/span&gt; &lt;span class=&quot;hljs-built_in&quot;&gt;String&lt;/span&gt;&lt;/span&gt;&lt;/span&gt;&lt;/span&gt;&lt;/div&gt;&lt;div&gt;&lt;span class=&quot;hljs-punctuation&quot;&gt;&lt;span class=&quot;hljs-built_in&quot;&gt;&lt;span class=&quot;hljs-built_in&quot;&gt;&lt;span class=&quot;hljs-built_in&quot;&gt;&lt;span class=&quot;hljs-operator&quot;&gt;+&lt;/span&gt; &lt;span class=&quot;hljs-variable&quot;&gt;getFees&lt;/span&gt;&lt;span class=&quot;hljs-punctuation&quot;&gt;(&lt;/span&gt;&lt;span class=&quot;hljs-punctuation&quot;&gt;)&lt;/span&gt;&lt;span class=&quot;hljs-operator&quot;&gt;:&lt;/span&gt; &lt;span class=&quot;hljs-variable&quot;&gt;int&lt;/span&gt;&lt;/span&gt;&lt;/span&gt;&lt;/span&gt;&lt;/span&gt;&lt;/div&gt;&lt;div&gt;&lt;span class=&quot;hljs-punctuation&quot;&gt;&lt;span class=&quot;hljs-built_in&quot;&gt;&lt;span class=&quot;hljs-built_in&quot;&gt;&lt;span class=&quot;hljs-built_in&quot;&gt;&lt;span class=&quot;hljs-variable&quot;&gt;&lt;span class=&quot;hljs-operator&quot;&gt;+&lt;/span&gt; &lt;span class=&quot;hljs-variable&quot;&gt;getDoctorId&lt;/span&gt;&lt;span class=&quot;hljs-punctuation&quot;&gt;(&lt;/span&gt;&lt;span class=&quot;hljs-punctuation&quot;&gt;)&lt;/span&gt;&lt;span class=&quot;hljs-operator&quot;&gt;:&lt;/span&gt; &lt;span class=&quot;hljs-built_in&quot;&gt;String&lt;/span&gt;&lt;/span&gt;&lt;/span&gt;&lt;/span&gt;&lt;/span&gt;&lt;/span&gt;&lt;/div&gt;&lt;div&gt;&lt;span class=&quot;hljs-punctuation&quot;&gt;&lt;span class=&quot;hljs-built_in&quot;&gt;&lt;span class=&quot;hljs-built_in&quot;&gt;&lt;span class=&quot;hljs-built_in&quot;&gt;&lt;span class=&quot;hljs-variable&quot;&gt;&lt;span class=&quot;hljs-built_in&quot;&gt;&lt;span class=&quot;hljs-operator&quot;&gt;+&lt;/span&gt; &lt;span class=&quot;hljs-variable&quot;&gt;toString&lt;/span&gt;&lt;span class=&quot;hljs-punctuation&quot;&gt;(&lt;/span&gt;&lt;span class=&quot;hljs-punctuation&quot;&gt;)&lt;/span&gt;&lt;span class=&quot;hljs-operator&quot;&gt;:&lt;/span&gt; &lt;span class=&quot;hljs-built_in&quot;&gt;String&lt;/span&gt;&lt;/span&gt;&lt;/span&gt;&lt;/span&gt;&lt;/span&gt;&lt;/span&gt;&lt;/span&gt;&lt;/div&gt;" style="text;strokeColor=none;fillColor=none;align=left;verticalAlign=top;spacingLeft=4;spacingRight=4;overflow=hidden;rotatable=0;points=[[0,0.5],[1,0.5]];portConstraint=eastwest;whiteSpace=wrap;html=1;" vertex="1" parent="FvDt3EPxWLtIRSp8jO_J-19">
          <mxGeometry y="109.89637305699482" width="220.83" height="150.1" as="geometry" />
        </mxCell>
        <mxCell id="FvDt3EPxWLtIRSp8jO_J-23" value="HospitalManagementSystem       " style="swimlane;fontStyle=1;align=center;verticalAlign=top;childLayout=stackLayout;horizontal=1;startSize=26;horizontalStack=0;resizeParent=1;resizeParentMax=0;resizeLast=0;collapsible=1;marginBottom=0;whiteSpace=wrap;html=1;" vertex="1" parent="FvDt3EPxWLtIRSp8jO_J-41">
          <mxGeometry x="290.24" width="330" height="290.0038860103627" as="geometry" />
        </mxCell>
        <mxCell id="FvDt3EPxWLtIRSp8jO_J-24" value="+ addPatientButton: JButton&lt;div&gt;+ addDoctorButton: JButton&lt;/div&gt;&lt;div&gt;+ viewPatientsButton: JButton&lt;/div&gt;&lt;div&gt;+ viewDoctorsButton: JButton&lt;/div&gt;&lt;div&gt;+ appointmentButton: JButton&lt;/div&gt;&lt;div&gt;+ viewAppointmentsButton: JButton&lt;/div&gt;&lt;div&gt;+ ExitButton: JButton&amp;nbsp;&lt;/div&gt;&lt;div&gt;&amp;nbsp;&lt;/div&gt;" style="text;strokeColor=none;fillColor=none;align=left;verticalAlign=top;spacingLeft=4;spacingRight=4;overflow=hidden;rotatable=0;points=[[0,0.5],[1,0.5]];portConstraint=eastwest;whiteSpace=wrap;html=1;" vertex="1" parent="FvDt3EPxWLtIRSp8jO_J-23">
          <mxGeometry y="26" width="330" height="103.95854922279793" as="geometry" />
        </mxCell>
        <mxCell id="FvDt3EPxWLtIRSp8jO_J-25" value="" style="line;strokeWidth=1;fillColor=none;align=left;verticalAlign=middle;spacingTop=-1;spacingLeft=3;spacingRight=3;rotatable=0;labelPosition=right;points=[];portConstraint=eastwest;strokeColor=inherit;" vertex="1" parent="FvDt3EPxWLtIRSp8jO_J-23">
          <mxGeometry y="129.95854922279793" width="330" height="7.295336787564767" as="geometry" />
        </mxCell>
        <mxCell id="FvDt3EPxWLtIRSp8jO_J-26" value="+ &lt;span class=&quot;hljs-title function_ invoke__&quot;&gt;HospitalManagementSystem&lt;/span&gt;()&lt;div&gt;+ &lt;span class=&quot;hljs-title function_ invoke__&quot;&gt;addPatientButtonActionListener&lt;/span&gt;(&lt;span class=&quot;hljs-attr&quot;&gt;e&lt;/span&gt;: ActionEvent): &lt;span class=&quot;hljs-keyword&quot;&gt;void&lt;/span&gt;&lt;/div&gt;&lt;div&gt;&lt;span class=&quot;hljs-keyword&quot;&gt;+ &lt;span class=&quot;hljs-title function_ invoke__&quot;&gt;addDoctorButtonActionListener&lt;/span&gt;(&lt;span class=&quot;hljs-attr&quot;&gt;e&lt;/span&gt;: ActionEvent): &lt;span class=&quot;hljs-keyword&quot;&gt;void&lt;/span&gt;&lt;/span&gt;&lt;/div&gt;&lt;div&gt;&lt;span class=&quot;hljs-keyword&quot;&gt;&lt;span class=&quot;hljs-keyword&quot;&gt;+ &lt;span class=&quot;hljs-title function_ invoke__&quot;&gt;viewPatientsButtonActionListener&lt;/span&gt;(&lt;span class=&quot;hljs-attr&quot;&gt;e&lt;/span&gt;: ActionEvent): &lt;span class=&quot;hljs-keyword&quot;&gt;void&lt;/span&gt;&lt;/span&gt;&lt;/span&gt;&lt;/div&gt;&lt;div&gt;&lt;span class=&quot;hljs-keyword&quot;&gt;&lt;span class=&quot;hljs-keyword&quot;&gt;&lt;span class=&quot;hljs-keyword&quot;&gt;+ &lt;span class=&quot;hljs-title function_ invoke__&quot;&gt;viewDoctorsButtonActionListener&lt;/span&gt;(&lt;span class=&quot;hljs-attr&quot;&gt;e&lt;/span&gt;: ActionEvent): &lt;span class=&quot;hljs-keyword&quot;&gt;void&lt;/span&gt;&lt;/span&gt;&lt;/span&gt;&lt;/span&gt;&lt;/div&gt;&lt;div&gt;&lt;span class=&quot;hljs-keyword&quot;&gt;&lt;span class=&quot;hljs-keyword&quot;&gt;&lt;span class=&quot;hljs-keyword&quot;&gt;&lt;span class=&quot;hljs-keyword&quot;&gt;+ &lt;span class=&quot;hljs-title function_ invoke__&quot;&gt;appointmentButtonActionListener&lt;/span&gt;(&lt;span class=&quot;hljs-attr&quot;&gt;e&lt;/span&gt;: ActionEvent): &lt;span class=&quot;hljs-keyword&quot;&gt;void&lt;/span&gt;&lt;/span&gt;&lt;/span&gt;&lt;/span&gt;&lt;/span&gt;&lt;/div&gt;&lt;div&gt;&lt;span class=&quot;hljs-keyword&quot;&gt;&lt;span class=&quot;hljs-keyword&quot;&gt;&lt;span class=&quot;hljs-keyword&quot;&gt;&lt;span class=&quot;hljs-keyword&quot;&gt;&lt;span class=&quot;hljs-keyword&quot;&gt;+ &lt;span class=&quot;hljs-title function_ invoke__&quot;&gt;viewAppointmentsButtonActionListener&lt;/span&gt;(&lt;span class=&quot;hljs-attr&quot;&gt;e&lt;/span&gt;: ActionEvent): &lt;span class=&quot;hljs-keyword&quot;&gt;void&lt;/span&gt;&lt;/span&gt;&lt;/span&gt;&lt;/span&gt;&lt;/span&gt;&lt;/span&gt;&lt;/div&gt;" style="text;strokeColor=none;fillColor=none;align=left;verticalAlign=top;spacingLeft=4;spacingRight=4;overflow=hidden;rotatable=0;points=[[0,0.5],[1,0.5]];portConstraint=eastwest;whiteSpace=wrap;html=1;" vertex="1" parent="FvDt3EPxWLtIRSp8jO_J-23">
          <mxGeometry y="137.2538860103627" width="330" height="152.75" as="geometry" />
        </mxCell>
        <mxCell id="FvDt3EPxWLtIRSp8jO_J-27" value="Appointment" style="swimlane;fontStyle=1;align=center;verticalAlign=top;childLayout=stackLayout;horizontal=1;startSize=26;horizontalStack=0;resizeParent=1;resizeParentMax=0;resizeLast=0;collapsible=1;marginBottom=0;whiteSpace=wrap;html=1;" vertex="1" parent="FvDt3EPxWLtIRSp8jO_J-41">
          <mxGeometry x="555.2380952380952" y="642.9015544041451" width="239.76" height="239.99720207253887" as="geometry" />
        </mxCell>
        <mxCell id="FvDt3EPxWLtIRSp8jO_J-28" value="&lt;span class=&quot;hljs-operator&quot;&gt;-&lt;/span&gt; &lt;span class=&quot;hljs-variable&quot;&gt;DoctorName&lt;/span&gt;&lt;span class=&quot;hljs-operator&quot;&gt;:&lt;/span&gt; &lt;span class=&quot;hljs-built_in&quot;&gt;String&lt;/span&gt;&lt;div&gt;&lt;span class=&quot;hljs-built_in&quot;&gt;&lt;span class=&quot;hljs-operator&quot;&gt;-&lt;/span&gt; &lt;span class=&quot;hljs-variable&quot;&gt;DoctorId&lt;/span&gt;&lt;span class=&quot;hljs-operator&quot;&gt;:&lt;/span&gt; &lt;span class=&quot;hljs-built_in&quot;&gt;String&lt;/span&gt;&lt;/span&gt;&lt;/div&gt;&lt;div&gt;&lt;span class=&quot;hljs-built_in&quot;&gt;&lt;span class=&quot;hljs-built_in&quot;&gt;&lt;span class=&quot;hljs-operator&quot;&gt;-&lt;/span&gt; &lt;span class=&quot;hljs-variable&quot;&gt;PatientName&lt;/span&gt;&lt;span class=&quot;hljs-operator&quot;&gt;:&lt;/span&gt; &lt;span class=&quot;hljs-built_in&quot;&gt;String&lt;/span&gt;&lt;/span&gt;&lt;/span&gt;&lt;/div&gt;&lt;div&gt;&lt;span class=&quot;hljs-built_in&quot;&gt;&lt;span class=&quot;hljs-built_in&quot;&gt;&lt;span class=&quot;hljs-built_in&quot;&gt;&lt;span class=&quot;hljs-operator&quot;&gt;-&lt;/span&gt; &lt;span class=&quot;hljs-variable&quot;&gt;appointmentDateTime&lt;/span&gt;&lt;span class=&quot;hljs-operator&quot;&gt;:&lt;/span&gt; &lt;span class=&quot;hljs-built_in&quot;&gt;String&lt;/span&gt;&lt;/span&gt;&lt;/span&gt;&lt;/span&gt;&lt;/div&gt;" style="text;strokeColor=none;fillColor=none;align=left;verticalAlign=top;spacingLeft=4;spacingRight=4;overflow=hidden;rotatable=0;points=[[0,0.5],[1,0.5]];portConstraint=eastwest;whiteSpace=wrap;html=1;" vertex="1" parent="FvDt3EPxWLtIRSp8jO_J-27">
          <mxGeometry y="26" width="239.76" height="67.48186528497409" as="geometry" />
        </mxCell>
        <mxCell id="FvDt3EPxWLtIRSp8jO_J-29" value="" style="line;strokeWidth=1;fillColor=none;align=left;verticalAlign=middle;spacingTop=-1;spacingLeft=3;spacingRight=3;rotatable=0;labelPosition=right;points=[];portConstraint=eastwest;strokeColor=inherit;" vertex="1" parent="FvDt3EPxWLtIRSp8jO_J-27">
          <mxGeometry y="93.48186528497409" width="239.76" height="7.295336787564767" as="geometry" />
        </mxCell>
        <mxCell id="FvDt3EPxWLtIRSp8jO_J-30" value="&lt;span class=&quot;hljs-operator&quot;&gt;+&lt;/span&gt; &lt;span class=&quot;hljs-variable&quot;&gt;Appointment&lt;/span&gt;&lt;span class=&quot;hljs-punctuation&quot;&gt;(&lt;/span&gt;&lt;span class=&quot;hljs-variable&quot;&gt;patientName&lt;/span&gt;&lt;span class=&quot;hljs-operator&quot;&gt;:&lt;/span&gt; &lt;span class=&quot;hljs-built_in&quot;&gt;String&lt;/span&gt;&lt;span class=&quot;hljs-operator&quot;&gt;,&lt;/span&gt; &lt;span class=&quot;hljs-variable&quot;&gt;doctorName&lt;/span&gt;&lt;span class=&quot;hljs-operator&quot;&gt;:&lt;/span&gt; &lt;span class=&quot;hljs-built_in&quot;&gt;String&lt;/span&gt;&lt;span class=&quot;hljs-operator&quot;&gt;,&lt;/span&gt; &lt;span class=&quot;hljs-variable&quot;&gt;DoctorId&lt;/span&gt;&lt;span class=&quot;hljs-operator&quot;&gt;:&lt;/span&gt; &lt;span class=&quot;hljs-built_in&quot;&gt;String&lt;/span&gt;&lt;span class=&quot;hljs-operator&quot;&gt;,&lt;/span&gt; &lt;span class=&quot;hljs-variable&quot;&gt;appointmentDateTime&lt;/span&gt;&lt;span class=&quot;hljs-operator&quot;&gt;:&lt;/span&gt; &lt;span class=&quot;hljs-built_in&quot;&gt;String&lt;/span&gt;&lt;span class=&quot;hljs-punctuation&quot;&gt;)&lt;/span&gt;&lt;div&gt;&lt;span class=&quot;hljs-operator&quot;&gt;+&lt;/span&gt; &lt;span class=&quot;hljs-variable&quot;&gt;getPatientName&lt;/span&gt;&lt;span class=&quot;hljs-punctuation&quot;&gt;(&lt;/span&gt;&lt;span class=&quot;hljs-punctuation&quot;&gt;)&lt;/span&gt;&lt;span class=&quot;hljs-operator&quot;&gt;:&lt;/span&gt; &lt;span class=&quot;hljs-built_in&quot;&gt;String&lt;/span&gt;&lt;/div&gt;&lt;div&gt;&lt;span class=&quot;hljs-operator&quot;&gt;+&lt;/span&gt; &lt;span class=&quot;hljs-variable&quot;&gt;getDoctorName&lt;/span&gt;&lt;span class=&quot;hljs-punctuation&quot;&gt;(&lt;/span&gt;&lt;span class=&quot;hljs-punctuation&quot;&gt;)&lt;/span&gt;&lt;span class=&quot;hljs-operator&quot;&gt;:&lt;/span&gt; &lt;span class=&quot;hljs-built_in&quot;&gt;String&lt;/span&gt;&lt;/div&gt;&lt;div&gt;&lt;span class=&quot;hljs-operator&quot;&gt;+&lt;/span&gt; &lt;span class=&quot;hljs-variable&quot;&gt;getDoctorId&lt;/span&gt;&lt;span class=&quot;hljs-punctuation&quot;&gt;(&lt;/span&gt;&lt;span class=&quot;hljs-punctuation&quot;&gt;)&lt;/span&gt;&lt;span class=&quot;hljs-operator&quot;&gt;:&lt;/span&gt; &lt;span class=&quot;hljs-built_in&quot;&gt;String&lt;/span&gt;&lt;/div&gt;&lt;div&gt;&lt;span class=&quot;hljs-operator&quot;&gt;+&lt;/span&gt; &lt;span class=&quot;hljs-variable&quot;&gt;getAppointmentDateTime&lt;/span&gt;&lt;span class=&quot;hljs-punctuation&quot;&gt;(&lt;/span&gt;&lt;span class=&quot;hljs-punctuation&quot;&gt;)&lt;/span&gt;&lt;span class=&quot;hljs-operator&quot;&gt;:&lt;/span&gt; &lt;span class=&quot;hljs-built_in&quot;&gt;String&lt;/span&gt;&lt;/div&gt;&lt;div&gt;&lt;span class=&quot;hljs-operator&quot;&gt;+&lt;/span&gt; &lt;span class=&quot;hljs-variable&quot;&gt;toString&lt;/span&gt;&lt;span class=&quot;hljs-punctuation&quot;&gt;(&lt;/span&gt;&lt;span class=&quot;hljs-punctuation&quot;&gt;)&lt;/span&gt;&lt;span class=&quot;hljs-operator&quot;&gt;:&lt;/span&gt; &lt;span class=&quot;hljs-built_in&quot;&gt;String&lt;/span&gt;&lt;br&gt;&lt;div&gt;&lt;span class=&quot;hljs-punctuation&quot;&gt;&lt;br&gt;&lt;/span&gt;&lt;/div&gt;&lt;/div&gt;" style="text;strokeColor=none;fillColor=none;align=left;verticalAlign=top;spacingLeft=4;spacingRight=4;overflow=hidden;rotatable=0;points=[[0,0.5],[1,0.5]];portConstraint=eastwest;whiteSpace=wrap;html=1;" vertex="1" parent="FvDt3EPxWLtIRSp8jO_J-27">
          <mxGeometry y="100.77720207253886" width="239.76" height="139.22" as="geometry" />
        </mxCell>
        <mxCell id="FvDt3EPxWLtIRSp8jO_J-32" value="" style="endArrow=none;html=1;rounded=0;exitX=0.999;exitY=0.577;exitDx=0;exitDy=0;entryX=-0.001;entryY=0.609;entryDx=0;entryDy=0;exitPerimeter=0;entryPerimeter=0;" edge="1" parent="FvDt3EPxWLtIRSp8jO_J-41" source="FvDt3EPxWLtIRSp8jO_J-22" target="FvDt3EPxWLtIRSp8jO_J-18">
          <mxGeometry width="50" height="50" relative="1" as="geometry">
            <mxPoint x="233.45238095238096" y="911.9170984455959" as="sourcePoint" />
            <mxPoint x="378.5714285714286" y="911.9170984455959" as="targetPoint" />
          </mxGeometry>
        </mxCell>
        <mxCell id="FvDt3EPxWLtIRSp8jO_J-34" value="" style="endArrow=open;endFill=1;endSize=12;html=1;rounded=0;" edge="1" parent="FvDt3EPxWLtIRSp8jO_J-41">
          <mxGeometry width="160" relative="1" as="geometry">
            <mxPoint x="384.94404761904764" y="581.1738860103627" as="sourcePoint" />
            <mxPoint x="385" y="550" as="targetPoint" />
            <Array as="points" />
          </mxGeometry>
        </mxCell>
        <mxCell id="FvDt3EPxWLtIRSp8jO_J-35" value="" style="endArrow=none;html=1;rounded=0;" edge="1" parent="FvDt3EPxWLtIRSp8jO_J-41">
          <mxGeometry width="50" height="50" relative="1" as="geometry">
            <mxPoint x="107.26190476190476" y="583.6269430051814" as="sourcePoint" />
            <mxPoint x="668.8095238095239" y="583.6269430051814" as="targetPoint" />
          </mxGeometry>
        </mxCell>
        <mxCell id="FvDt3EPxWLtIRSp8jO_J-36" value="" style="endArrow=none;html=1;rounded=0;entryX=0.5;entryY=0;entryDx=0;entryDy=0;" edge="1" parent="FvDt3EPxWLtIRSp8jO_J-41" target="FvDt3EPxWLtIRSp8jO_J-19">
          <mxGeometry width="50" height="50" relative="1" as="geometry">
            <mxPoint x="110.41666666666667" y="583.6269430051814" as="sourcePoint" />
            <mxPoint x="290.23809523809524" y="824.3730569948186" as="targetPoint" />
          </mxGeometry>
        </mxCell>
        <mxCell id="FvDt3EPxWLtIRSp8jO_J-37" value="" style="endArrow=none;html=1;rounded=0;entryX=0.479;entryY=-0.003;entryDx=0;entryDy=0;entryPerimeter=0;" edge="1" parent="FvDt3EPxWLtIRSp8jO_J-41" target="FvDt3EPxWLtIRSp8jO_J-15">
          <mxGeometry width="50" height="50" relative="1" as="geometry">
            <mxPoint x="384.8809523809524" y="574.5077720207254" as="sourcePoint" />
            <mxPoint x="391.1904761904762" y="642.9015544041451" as="targetPoint" />
          </mxGeometry>
        </mxCell>
        <mxCell id="FvDt3EPxWLtIRSp8jO_J-38" value="" style="endArrow=none;html=1;rounded=0;entryX=0.479;entryY=-0.003;entryDx=0;entryDy=0;entryPerimeter=0;" edge="1" parent="FvDt3EPxWLtIRSp8jO_J-41">
          <mxGeometry width="50" height="50" relative="1" as="geometry">
            <mxPoint x="668.8095238095239" y="583.6269430051814" as="sourcePoint" />
            <mxPoint x="668.8095238095239" y="642.9015544041451" as="targetPoint" />
          </mxGeometry>
        </mxCell>
        <mxCell id="FvDt3EPxWLtIRSp8jO_J-39" value="" style="endArrow=open;endFill=1;endSize=12;html=1;rounded=0;exitX=0.449;exitY=0.004;exitDx=0;exitDy=0;exitPerimeter=0;" edge="1" parent="FvDt3EPxWLtIRSp8jO_J-41" source="FvDt3EPxWLtIRSp8jO_J-11">
          <mxGeometry width="160" relative="1" as="geometry">
            <mxPoint x="391.25357142857143" y="328.29015544041454" as="sourcePoint" />
            <mxPoint x="412" y="290" as="targetPoint" />
            <Array as="points" />
          </mxGeometry>
        </mxCell>
        <mxCell id="FvDt3EPxWLtIRSp8jO_J-40" value="" style="endArrow=open;endFill=1;endSize=12;html=1;rounded=0;exitX=0;exitY=0.472;exitDx=0;exitDy=0;exitPerimeter=0;entryX=0.999;entryY=0.999;entryDx=0;entryDy=0;entryPerimeter=0;" edge="1" parent="FvDt3EPxWLtIRSp8jO_J-41" source="FvDt3EPxWLtIRSp8jO_J-24" target="FvDt3EPxWLtIRSp8jO_J-2">
          <mxGeometry width="160" relative="1" as="geometry">
            <mxPoint x="176.66666666666669" y="117.63730569948187" as="sourcePoint" />
            <mxPoint x="157.73809523809524" y="72.95336787564767" as="targetPoint" />
            <Array as="points" />
          </mxGeometry>
        </mxCell>
      </root>
    </mxGraphModel>
  </diagram>
</mxfile>
